<?xml version="1.0" standalone="no"?>
<!DOCTYPE svg PUBLIC "-//W3C//DTD SVG 20010904//EN"
 "http://www.w3.org/TR/2001/REC-SVG-20010904/DTD/svg10.dtd">
<svg version="1.0" xmlns="http://www.w3.org/2000/svg"
 width="609.000000pt" height="722.000000pt" viewBox="0 0 609.000000 722.000000"
 preserveAspectRatio="xMidYMid meet">

<g transform="translate(0.000000,722.000000) scale(0.100000,-0.100000)"
fill="#000000" stroke="none">
<path d="M2193 6767 c-152 -62 -289 -163 -394 -290 l-53 -65 -53 57 c-157 174
-370 125 -483 -112 -41 -84 -73 -209 -86 -331 -5 -53 -15 -83 -44 -133 -21
-35 -46 -91 -57 -124 -10 -32 -21 -59 -25 -59 -4 0 -16 30 -28 66 -22 73 -26
164 -8 182 9 9 7 12 -8 12 -27 0 -58 -35 -79 -88 -13 -32 -16 -63 -13 -127 2
-47 3 -85 1 -85 -3 0 -13 5 -24 11 -15 8 -24 7 -36 -3 -12 -10 -14 -26 -10
-79 6 -67 39 -138 90 -196 19 -21 19 -24 2 -108 -9 -47 -23 -98 -31 -113 -21
-40 -17 -93 16 -232 17 -69 37 -163 46 -210 10 -57 31 -120 65 -190 27 -58 49
-109 49 -113 0 -3 11 -30 24 -59 74 -164 86 -192 86 -208 0 -32 28 -84 60
-115 18 -16 57 -68 87 -115 122 -187 258 -355 400 -490 123 -118 156 -145 161
-132 2 7 17 12 34 12 l29 0 -5 53 c-3 28 -8 95 -11 147 -4 52 -12 125 -19 163
-14 75 -8 94 34 99 32 4 39 -15 8 -23 -22 -6 -22 -7 7 -18 49 -20 85 -25 85
-12 0 7 -18 57 -41 113 -23 55 -37 103 -33 108 29 28 427 34 634 10 151 -17
135 -2 148 -136 6 -64 13 -118 15 -121 2 -2 12 0 21 3 15 6 17 15 11 50 -5 36
-3 43 12 47 14 4 15 5 2 6 -12 1 -18 15 -22 58 -3 32 -4 59 -2 62 3 2 42 -4
87 -14 134 -29 172 -30 223 -5 30 14 52 35 67 62 17 30 33 44 63 54 51 17 110
79 126 134 11 36 10 46 -5 75 -10 18 -29 38 -42 44 l-24 11 26 42 c15 24 37
54 49 68 37 41 110 152 133 202 12 26 25 72 28 103 4 31 11 58 16 61 13 8 155
-16 248 -43 102 -29 287 -109 390 -169 84 -49 190 -129 190 -144 0 -6 -11 -16
-25 -22 -22 -10 -30 -8 -53 10 -74 59 -193 132 -247 153 -56 22 -57 17 -3 -40
66 -71 86 -95 126 -153 l32 -46 -95 -51 c-95 -51 -115 -58 -115 -43 0 5 -6 16
-14 27 -12 17 -21 14 -160 -54 -122 -59 -147 -75 -141 -89 3 -9 7 -21 8 -27 1
-5 -34 -28 -77 -51 -76 -40 -80 -41 -95 -24 -15 18 -21 16 -121 -33 -97 -48
-105 -54 -103 -80 1 -21 -5 -31 -29 -43 -26 -14 -29 -19 -24 -47 6 -31 4 -33
-76 -81 -46 -27 -85 -53 -88 -57 -3 -4 -77 -44 -165 -90 -88 -45 -162 -83
-164 -85 -2 -2 -17 -52 -33 -111 -53 -194 -54 -198 -69 -194 -63 18 -109 -5
-138 -70 l-17 -37 -70 47 c-97 63 -272 153 -284 146 -6 -3 -10 -2 -10 4 0 5
-26 17 -57 27 -32 9 -66 21 -77 26 -13 7 -21 6 -26 -3 -15 -23 1 -36 52 -42
28 -4 54 -10 57 -15 3 -5 13 -12 21 -15 9 -3 4 -6 -12 -7 -16 -2 -32 -4 -38
-5 -5 -1 -14 -3 -20 -4 -19 -2 -10 -21 10 -21 11 0 20 -5 20 -11 0 -5 -4 -8
-9 -5 -13 8 -57 -10 -79 -32 -44 -44 -64 -28 -78 59 -4 26 -10 36 -15 28 -10
-17 -71 34 -229 191 -236 236 -470 583 -595 885 -87 209 -148 392 -185 555
-12 52 -26 105 -32 117 l-11 22 -17 -22 c-17 -23 -53 -97 -64 -134 -4 -13 -12
-23 -17 -23 -5 0 -9 -8 -9 -17 0 -9 -18 -69 -39 -132 -88 -257 -120 -444 -128
-736 -4 -170 -2 -245 11 -330 8 -60 20 -144 26 -185 6 -41 15 -84 20 -95 5
-11 11 -31 14 -45 13 -77 21 -109 37 -145 10 -22 19 -50 19 -62 0 -13 5 -23
10 -23 6 0 10 -7 10 -15 0 -27 31 -79 68 -113 34 -32 220 -158 291 -198 22
-12 38 -30 42 -48 11 -39 2 -50 -24 -33 -12 8 -49 29 -82 47 -33 18 -67 39
-76 46 -8 8 -20 14 -26 14 -5 0 -18 9 -27 19 -20 22 -53 33 -61 21 -6 -10 48
-114 94 -181 17 -26 31 -50 31 -53 0 -4 18 -31 40 -60 22 -29 40 -57 40 -62 1
-21 39 -54 57 -48 10 3 5 -3 -10 -13 -53 -35 -48 -89 13 -141 l38 -32 31 26
c18 15 34 25 36 23 2 -2 -19 -31 -46 -64 -319 -387 -447 -576 -478 -706 -34
-148 111 -463 305 -661 88 -89 117 -103 229 -104 l89 -1 12 -64 c23 -121 71
-223 128 -270 24 -20 21 -32 -60 -249 -30 -79 -54 -148 -54 -152 0 -4 715 -8
1590 -8 875 0 1590 1 1590 3 0 1 -23 61 -51 132 -28 72 -62 159 -75 195 -14
36 -31 79 -39 95 -44 97 -151 351 -170 405 -8 24 -12 47 -8 51 5 4 49 24 98
45 196 84 271 225 268 504 -1 125 -20 261 -46 322 -8 18 -24 55 -37 81 -12 26
-20 51 -16 54 3 4 6 1 6 -6 0 -7 5 -9 12 -5 6 4 8 3 4 -4 -3 -6 -2 -13 2 -16
8 -5 9 12 3 47 0 5 -6 5 -13 1 -7 -4 -8 -3 -4 5 5 8 12 9 20 2 18 -15 65 18
250 178 28 25 57 54 65 65 8 12 18 23 22 26 18 12 57 150 84 290 45 239 58
585 30 792 -17 120 -68 320 -115 448 -53 143 -163 347 -249 460 -37 49 -47 68
-38 78 21 27 51 7 108 -73 111 -154 222 -372 279 -550 115 -359 129 -650 54
-1107 -31 -189 -30 -205 9 -163 50 53 57 62 57 68 0 3 15 27 33 52 17 26 37
56 43 66 6 11 20 30 31 42 10 12 32 47 48 77 67 129 94 186 95 198 0 6 5 12
10 12 6 0 10 5 10 10 0 6 16 44 35 84 19 41 35 80 35 88 0 14 21 77 32 93 8
12 38 121 43 155 2 14 8 43 14 65 33 131 66 399 56 455 -12 63 -51 125 -189
295 -62 77 -256 273 -308 312 -63 45 -61 73 3 73 28 0 252 -222 377 -373 69
-84 108 -123 113 -115 7 14 -5 231 -14 245 -3 5 -13 52 -22 104 -26 150 -31
170 -58 249 -24 71 -24 76 -8 90 9 8 83 51 164 94 81 44 147 83 147 88 0 9
-31 71 -48 96 -7 10 -13 8 -30 -6 -12 -11 -22 -24 -22 -31 0 -6 -3 -10 -7 -10
-5 1 -17 1 -28 0 -15 -1 -17 -3 -6 -10 10 -6 4 -11 -20 -16 -42 -9 -140 -61
-132 -69 4 -3 0 -6 -8 -6 -19 0 -119 -49 -137 -67 -7 -7 -20 -13 -27 -13 -8 0
-38 -14 -67 -31 -29 -17 -219 -114 -423 -215 -203 -101 -415 -208 -470 -237
-55 -28 -134 -68 -175 -88 -41 -20 -115 -59 -165 -86 -49 -28 -211 -112 -360
-186 -279 -140 -288 -143 -297 -93 -2 17 54 49 357 203 198 101 369 182 380
181 11 -1 40 9 65 21 63 33 203 107 275 146 53 29 385 200 1060 546 115 59
211 113 213 119 3 8 -3 10 -16 6 -16 -5 -23 1 -40 36 -39 82 -39 82 -107 49
-45 -21 -88 -57 -170 -140 -60 -61 -116 -126 -124 -145 -12 -32 -37 -53 -49
-41 -9 9 18 57 66 114 26 31 50 58 55 59 4 2 7 13 7 23 0 11 -4 17 -10 14 -6
-4 -10 5 -10 19 0 14 -5 26 -11 26 -5 0 -8 4 -4 9 3 5 1 12 -5 16 -6 3 -17 21
-25 38 -24 51 -60 106 -98 152 -34 40 -40 43 -139 64 -516 111 -969 83 -1389
-84 -12 -4 -18 1 -21 19 -3 13 -2 29 1 34 8 13 228 87 317 106 335 74 645 71
1051 -10 40 -8 76 -14 82 -14 14 0 1 41 -15 47 -8 3 -14 10 -14 17 0 6 -17 29
-37 50 -21 21 -38 42 -38 45 -1 19 -339 334 -375 350 -17 7 -192 122 -200 131
-3 3 -34 21 -70 39 -36 19 -76 41 -90 50 -14 9 -36 22 -50 27 -14 6 -42 19
-63 28 -21 9 -42 14 -47 11 -4 -3 -10 -1 -12 3 -4 10 -132 62 -152 62 -33 0
-319 -174 -383 -233 -28 -25 -30 -22 -38 28 l-6 40 78 51 c43 28 108 70 145
93 60 39 100 79 62 64 -8 -3 -20 -1 -27 5 -6 5 -41 17 -77 25 -57 14 -114 23
-330 53 -25 4 -121 5 -215 3 -93 -1 -197 -3 -230 -2 -42 0 -52 -2 -35 -8 24
-7 23 -7 -7 -8 -17 -1 -44 4 -58 9 -38 14 -23 29 79 79 165 81 362 128 496
117 l75 -7 -95 46 c-186 91 -317 119 -477 103 l-78 -7 -30 34 c-49 57 -103 75
-225 75 -96 0 -112 -3 -187 -33z m291 -31 c46 -14 86 -40 86 -57 0 -4 -26 -15
-57 -24 -96 -27 -353 -152 -353 -172 0 -2 28 11 63 28 243 123 482 172 686
140 83 -13 231 -59 231 -72 0 -5 -35 -9 -77 -9 -127 0 -263 -36 -418 -110 -44
-21 -90 -48 -102 -59 -14 -14 -36 -21 -60 -21 -35 -1 -32 -3 42 -32 95 -37
245 -125 306 -179 24 -21 47 -39 52 -39 18 0 1 -23 -87 -112 -91 -93 -226
-280 -282 -390 -31 -62 -16 -55 21 10 75 129 231 313 345 404 95 77 147 100
230 102 192 4 228 -160 112 -511 -28 -83 -47 -162 -38 -152 2 2 18 41 36 87
17 45 34 82 36 82 3 0 17 -26 31 -57 14 -32 34 -78 45 -102 21 -48 48 -130 73
-229 15 -59 35 -262 27 -262 -3 0 -23 21 -45 46 -46 53 -88 74 -146 74 -71 0
-106 -68 -121 -235 -5 -62 -13 -121 -17 -132 -8 -23 -65 -104 -70 -100 -2 2 6
29 16 60 47 136 47 318 0 487 -11 41 -24 89 -28 105 -5 17 -19 62 -32 100 -31
94 -34 242 -5 274 11 12 16 24 12 28 -10 10 -144 -132 -187 -197 -132 -201
-155 -241 -254 -440 -73 -148 -182 -243 -275 -242 -158 2 -173 188 -28 367
l40 50 -55 -57 c-94 -98 -143 -241 -103 -302 21 -33 20 -46 -4 -46 -25 0 -52
49 -123 220 -74 180 -107 269 -162 430 -54 160 -132 322 -210 440 -69 103 -86
122 -146 160 -50 33 -79 31 -109 -6 -14 -16 -13 -16 18 0 30 15 34 15 64 0
l32 -16 -30 -13 c-76 -32 -131 -130 -167 -292 -28 -128 -29 -382 -3 -518 29
-147 84 -332 138 -458 27 -65 48 -120 46 -123 -12 -11 -100 82 -124 132 -22
45 -28 75 -34 170 -7 102 -11 119 -34 149 -69 90 -217 31 -313 -122 l-21 -35
-13 58 c-15 65 -18 224 -7 349 5 64 4 74 -5 53 -6 -16 -14 -28 -17 -28 -3 0
-21 26 -39 58 -35 61 -54 140 -39 167 9 15 11 15 35 0 l25 -17 -6 39 c-16 105
-17 132 -6 178 10 49 39 115 50 115 3 0 6 -33 6 -73 1 -81 16 -137 47 -181
l21 -29 18 44 c46 109 82 179 91 179 5 0 7 -9 4 -19 -5 -21 20 -299 31 -343 4
-15 7 88 8 230 0 243 2 263 27 372 51 217 100 310 196 372 41 26 53 29 112 26
52 -3 77 -10 115 -34 85 -52 199 -207 308 -419 50 -96 34 -44 -29 95 -56 124
-89 186 -111 211 -8 8 -14 20 -14 26 0 19 161 171 232 219 172 115 368 167
492 130z m-922 -733 c85 -89 195 -304 272 -535 31 -91 56 -170 56 -177 0 -6
-10 -11 -23 -11 -62 0 -127 -133 -127 -262 0 -93 35 -228 77 -294 15 -24 18
-22 -106 -65 -54 -19 -135 -24 -179 -13 -56 16 -184 377 -227 644 -41 258 14
622 107 706 61 56 101 58 150 7z m1381 -425 c-3 -39 5 -88 32 -188 20 -74 47
-175 60 -225 48 -177 43 -343 -14 -483 -25 -64 -27 -66 -81 -85 -68 -23 -129
-18 -199 17 l-50 26 14 35 c27 63 40 214 28 318 -11 96 -28 144 -66 185 l-22
23 29 54 c57 109 244 372 267 374 3 1 4 -23 2 -51z m-1008 -408 l32 -85 -28
-3 c-37 -4 -66 12 -89 51 -26 41 -25 82 1 108 33 33 48 20 84 -71z m733 -24
c28 -42 40 -109 22 -131 -19 -22 -48 -1 -70 51 -18 42 -19 46 -3 79 9 19 19
35 22 35 3 0 17 -16 29 -34z m-1408 -46 c27 -31 37 -72 44 -173 16 -227 177
-359 372 -302 65 19 160 61 184 81 20 17 155 84 194 96 83 26 110 27 155 6 40
-19 50 -20 101 -10 51 11 63 10 102 -7 43 -18 238 -145 248 -161 3 -5 32 -22
64 -39 48 -26 69 -31 125 -31 79 0 132 22 193 79 54 49 86 110 94 181 16 146
57 250 104 265 35 11 105 -38 151 -106 96 -143 69 -319 -87 -548 -67 -100 -86
-116 -98 -85 -16 42 -3 88 56 205 60 117 62 126 62 196 0 62 3 72 16 67 36
-15 48 -15 54 2 11 28 -25 68 -64 72 -37 4 -70 -21 -95 -73 -22 -47 -30 -95
-16 -95 6 0 11 6 11 13 0 21 51 70 62 59 23 -23 -3 -123 -59 -231 -44 -85 -56
-118 -60 -169 l-6 -63 51 -47 c27 -26 53 -57 57 -69 7 -27 -13 -68 -53 -107
-45 -43 -90 -43 -292 -3 -96 20 -197 38 -225 41 -121 14 -429 18 -556 8 -200
-16 -550 -75 -599 -101 -30 -16 -161 -33 -198 -26 -50 9 -113 50 -140 91 -35
54 -29 86 28 151 68 77 67 76 84 118 23 54 9 95 -65 190 -34 44 -75 109 -90
143 -45 99 -38 112 31 66 22 -15 42 -25 44 -23 2 2 -12 28 -30 57 -39 60 -90
90 -123 72 -26 -13 -58 -97 -43 -112 7 -7 15 -2 27 16 18 27 35 26 35 -2 0
-34 62 -146 121 -219 73 -90 88 -132 63 -171 -23 -37 -56 -72 -67 -72 -16 0
-133 125 -176 188 -85 126 -109 240 -77 374 23 94 97 203 156 227 39 17 108 7
130 -19z m2610 -150 c137 -14 371 -72 510 -127 146 -57 370 -174 370 -193 0
-4 -13 -13 -28 -19 -26 -11 -35 -8 -92 25 -167 97 -355 172 -560 220 -207 49
-320 53 -564 22 -14 -2 -23 6 -30 24 -5 15 -8 30 -5 32 8 8 156 23 234 25 39
0 113 -4 165 -9z m-1249 -840 c117 -11 215 -28 243 -42 13 -7 16 -7 11 2 -6 9
-3 9 12 2 10 -6 37 -13 59 -15 74 -9 145 -29 141 -40 -8 -24 -58 -50 -104 -54
-28 -3 -93 4 -153 15 -209 41 -357 55 -565 55 -240 -1 -367 -18 -682 -93 l-92
-22 -48 23 c-56 28 -67 49 -26 49 15 0 69 11 118 25 116 31 267 62 425 85 144
21 494 26 661 10z m1259 -101 c-7 -11 -14 -18 -17 -15 -8 8 5 36 17 36 7 0 7
-6 0 -21z m178 -30 c1 -8 -11 -18 -33 -25 -42 -13 -49 5 -13 30 25 18 42 16
46 -5z m288 -26 c-10 -10 -19 5 -10 18 6 11 8 11 12 0 2 -7 1 -15 -2 -18z m23
-50 c44 -157 55 -241 55 -408 0 -146 -4 -189 -27 -305 -52 -255 -170 -546
-299 -740 -62 -92 -56 -86 -69 -73 -19 19 8 110 58 191 153 253 263 592 279
862 7 115 -6 281 -32 403 -16 75 -16 78 2 92 10 8 20 15 21 15 1 0 7 -17 12
-37z m-481 -2 c9 -5 -29 -29 -120 -74 -73 -36 -180 -91 -238 -121 -72 -37
-121 -56 -155 -60 -45 -5 -24 8 215 129 146 74 270 134 275 134 6 1 16 -3 23
-8z m362 -105 c0 -79 -30 -272 -54 -346 -29 -90 -65 -165 -80 -168 -10 -2 -20
7 -26 22 -6 16 -15 24 -24 20 -8 -3 -31 10 -54 30 -32 29 -41 45 -46 84 -3 26
-15 65 -25 85 l-19 37 48 26 c27 14 51 35 53 46 3 11 -4 40 -16 64 -11 24 -19
45 -16 48 8 7 244 126 252 126 4 0 7 -33 7 -74z m-608 -198 c104 -48 148 -106
148 -196 0 -71 -34 -171 -72 -216 l-33 -38 -25 20 c-35 27 -97 52 -130 52 -43
0 -94 -44 -131 -114 -17 -31 -18 -40 -7 -47 39 -25 103 -34 254 -34 l160 0 37
-28 c21 -16 46 -45 56 -65 25 -49 44 -138 39 -185 l-3 -38 -177 -2 c-211 -2
-213 -18 -3 -27 159 -7 191 -17 217 -70 23 -44 24 -147 3 -218 -26 -87 -128
-192 -187 -192 -14 0 -73 84 -96 135 -25 56 -29 60 -55 63 -56 7 -183 -77
-317 -209 -288 -284 -402 -349 -610 -349 -68 0 -70 -1 -60 -20 6 -11 8 -25 5
-30 -3 -5 0 -12 6 -16 7 -4 10 -3 7 2 -4 5 34 9 85 10 80 0 152 13 220 40 25
9 128 -220 191 -426 34 -115 94 -366 98 -415 l3 -40 -50 -11 c-122 -28 -398
-75 -411 -70 -9 3 -12 1 -9 -4 3 -6 -6 -11 -22 -12 -53 -3 -58 -4 -69 -11 -6
-3 -29 -9 -51 -13 l-39 -6 -16 107 c-9 59 -19 109 -22 112 -11 11 -108 -33
-158 -71 -188 -142 -418 -235 -653 -262 -91 -10 -98 -22 -10 -16 77 5 77 5 65
-17 -6 -12 -26 -31 -43 -41 -19 -12 -25 -20 -16 -20 23 0 99 57 99 75 0 11 12
15 43 15 81 1 226 39 320 86 27 13 55 24 62 24 29 0 82 -103 66 -129 -4 -6
-45 -22 -92 -35 -103 -28 -205 -76 -384 -180 -96 -56 -116 -65 -171 -75 -129
-24 -252 -2 -310 56 -57 57 -107 174 -115 268 -4 38 -3 39 36 48 52 12 598
174 644 192 20 8 75 25 123 40 76 22 87 28 79 43 -61 114 -164 456 -225 742
-24 115 -49 278 -61 401 l-7 66 36 22 c20 13 36 28 36 35 0 14 49 41 65 37 6
-2 7 1 3 5 -10 9 64 64 77 57 5 -4 7 -3 3 1 -9 10 50 66 126 120 69 50 102 61
100 34 -3 -39 27 -14 88 71 35 49 129 176 210 283 81 106 182 239 224 296 77
103 220 247 302 304 24 17 71 42 105 56 163 67 296 77 399 30z m-612 -123
c-13 -14 -94 -60 -180 -103 -189 -93 -190 -94 -190 -82 0 5 28 25 63 43 78 44
320 167 326 167 2 0 -6 -11 -19 -25z m1131 -287 c98 -75 101 -95 26 -145 -61
-41 -104 -53 -188 -53 -54 0 -71 4 -100 26 -19 14 -40 29 -48 33 -11 7 -6 16
21 44 46 46 77 111 90 191 l11 65 54 -49 c30 -27 90 -78 134 -112z m-2211 120
c0 -4 -4 -8 -9 -8 -6 0 -12 4 -15 8 -3 5 1 9 9 9 8 0 15 -4 15 -9z m71 -16
c-7 -2 -18 1 -23 6 -8 8 -4 9 13 5 13 -4 18 -8 10 -11z m44 -20 c-3 -3 -11 0
-18 7 -9 10 -8 11 6 5 10 -3 15 -9 12 -12z m39 -11 c3 -5 -3 -11 -15 -14 -16
-4 -18 -3 -8 9 13 16 16 17 23 5z m-57 -27 c-3 -3 -12 -4 -19 -1 -8 3 -5 6 6
6 11 1 17 -2 13 -5z m53 -4 c-8 -5 -22 -9 -30 -9 -10 0 -8 3 5 9 27 12 43 12
25 0z m1503 -78 c43 -26 32 -35 -38 -30 -75 5 -101 21 -70 44 22 17 64 11 108
-14z m-2030 -231 c-15 -22 -30 -38 -32 -36 -3 4 49 75 56 75 2 0 -8 -18 -24
-39z"/>
<path d="M2224 5367 c-24 -36 -74 -176 -74 -204 0 -10 12 15 26 56 14 41 36
94 50 117 30 52 28 78 -2 31z"/>
<path d="M1073 5318 c-14 -17 -43 -75 -43 -84 0 -5 14 14 31 40 27 44 36 74
12 44z"/>
<path d="M2425 4609 c-4 -11 -4 -23 -2 -26 9 -8 28 7 22 18 -4 5 -1 9 5 9 6 0
14 -9 18 -21 7 -19 9 -19 21 -5 11 13 11 19 1 31 -19 22 -57 19 -65 -6z"/>
<path d="M1965 4594 c-17 -18 -16 -35 3 -42 7 -2 10 2 6 11 -7 20 14 31 31 17
12 -10 15 -9 15 3 0 8 -7 18 -16 21 -21 8 -20 8 -39 -10z"/>
<path d="M2250 4373 c-90 -6 -207 -25 -285 -44 -119 -31 -296 -90 -330 -111
-41 -25 -32 -23 60 13 317 122 786 144 1150 55 55 -14 109 -28 120 -32 13 -5
17 -4 10 3 -25 25 -226 83 -335 97 -121 15 -314 25 -390 19z"/>
<path d="M2570 1945 c0 -5 5 -17 10 -25 5 -8 10 -10 10 -5 0 6 -5 17 -10 25
-5 8 -10 11 -10 5z"/>
<path d="M2686 1737 c3 -10 9 -15 12 -12 3 3 0 11 -7 18 -10 9 -11 8 -5 -6z"/>
<path d="M2229 1723 c-13 -16 -12 -17 4 -4 9 7 17 15 17 17 0 8 -8 3 -21 -13z"/>
<path d="M2415 1720 c10 -11 20 -20 23 -20 3 0 -3 9 -13 20 -10 11 -20 20 -23
20 -3 0 3 -9 13 -20z"/>
<path d="M2184 1664 c-8 -20 -13 -38 -11 -40 2 -2 11 14 20 36 19 50 12 53 -9
4z"/>
<path d="M2750 1630 c6 -11 13 -20 16 -20 2 0 0 9 -6 20 -6 11 -13 20 -16 20
-2 0 0 -9 6 -20z"/>
<path d="M2800 1536 c0 -2 8 -10 18 -17 15 -13 16 -12 3 4 -13 16 -21 21 -21
13z"/>
<path d="M2810 1415 c0 -8 4 -15 10 -15 5 0 7 7 4 15 -4 8 -8 15 -10 15 -2 0
-4 -7 -4 -15z"/>
<path d="M2540 1320 c-12 -7 -10 -9 7 -7 12 0 19 5 17 9 -6 10 -6 10 -24 -2z"/>
</g>
</svg>
